<?xml version="1.0" encoding="utf-8"?>
<!-- Generator: Adobe Illustrator 16.0.4, SVG Export Plug-In . SVG Version: 6.00 Build 0)  -->
<!DOCTYPE svg PUBLIC "-//W3C//DTD SVG 1.1//EN" "http://www.w3.org/Graphics/SVG/1.1/DTD/svg11.dtd">
<svg version="1.1" id="Layer_1" xmlns="http://www.w3.org/2000/svg" xmlns:xlink="http://www.w3.org/1999/xlink" x="0px" y="0px"
	 width="30px" height="30px" viewBox="0 0 30 30" enable-background="new 0 0 30 30" xml:space="preserve">
<path fill="#999999" d="M19.457,18.043C20.421,16.781,21,15.209,21,13.5C21,9.358,17.642,6,13.5,6C9.358,6,6,9.358,6,13.5
	c0,4.141,3.358,7.5,7.5,7.5c1.71,0,3.282-0.58,4.543-1.543L24.586,26L26,24.586L19.457,18.043z M13.5,19C10.467,19,8,16.532,8,13.5
	S10.467,8,13.5,8c3.034,0,5.5,2.467,5.5,5.5S16.533,19,13.5,19z"/>
</svg>
