<?xml version="1.0" encoding="utf-8"?>
<!-- Generator: Adobe Illustrator 16.0.4, SVG Export Plug-In . SVG Version: 6.00 Build 0)  -->
<!DOCTYPE svg PUBLIC "-//W3C//DTD SVG 1.1//EN" "http://www.w3.org/Graphics/SVG/1.1/DTD/svg11.dtd">
<svg version="1.1" id="Layer_1" xmlns="http://www.w3.org/2000/svg" xmlns:xlink="http://www.w3.org/1999/xlink" x="0px" y="0px"
	 width="30px" height="30px" viewBox="0 0 30 30" enable-background="new 0 0 30 30" xml:space="preserve">
<path fill="#999999" d="M24.121,7.636l-1.758-1.758C21.777,5.293,21.01,5,20.242,5s-1.535,0.293-2.121,0.878L5,19l-1,7l7-1
	l13.121-13.122C25.293,10.707,25.293,8.808,24.121,7.636z M6.357,23.643l0.359-2.513l2.154,2.153L6.357,23.643z M10.793,22.378
	l-3.172-3.171l9.828-9.829l3.172,3.172L10.793,22.378z M22.707,10.464l-0.672,0.672l-3.172-3.172l0.672-0.672
	C19.791,7.038,20.088,7,20.242,7c0.155,0,0.453,0.038,0.707,0.292l1.758,1.758C23.098,9.44,23.098,10.074,22.707,10.464z"/>
</svg>
