<?xml version="1.0" encoding="utf-8"?>
<!-- Generator: Adobe Illustrator 16.0.4, SVG Export Plug-In . SVG Version: 6.00 Build 0)  -->
<!DOCTYPE svg PUBLIC "-//W3C//DTD SVG 1.1//EN" "http://www.w3.org/Graphics/SVG/1.1/DTD/svg11.dtd">
<svg version="1.1" id="Layer_1" xmlns="http://www.w3.org/2000/svg" xmlns:xlink="http://www.w3.org/1999/xlink" x="0px" y="0px"
	 width="30px" height="30px" viewBox="0 0 30 30" enable-background="new 0 0 30 30" xml:space="preserve">
<path fill="#6699ff" d="M19,9V8c0-1.654-1.346-3-3-3h-2c-1.654,0-3,1.346-3,3v1H7H5v2h2.25L9,25h12l1.75-14H25V9h-2H19z M13,8
	c0-0.551,0.449-1,1-1h2c0.551,0,1,0.449,1,1v1h-4V8z M19.234,23h-8.469l-1.5-12h11.469L19.234,23z"/>
</svg>
